<svg width="25" height="25" viewBox="0 0 35 35" fill="none" xmlns="http://www.w3.org/2000/svg">
<path d="M12.9427 15.2215H22.0573C22.5608 15.2215 22.9687 14.8136 22.9687 14.31V13.3986C22.9687 12.895 22.5608 12.4871 22.0573 12.4871H12.9427C12.4391 12.4871 12.0313 12.895 12.0313 13.3986V14.31C12.0313 14.8136 12.4391 15.2215 12.9427 15.2215ZM12.0313 19.7787C12.0313 20.2823 12.4391 20.6902 12.9427 20.6902H22.0573C22.5608 20.6902 22.9687 20.2823 22.9687 19.7787V18.8673C22.9687 18.3637 22.5608 17.9558 22.0573 17.9558H12.9427C12.4391 17.9558 12.0313 18.3637 12.0313 18.8673V19.7787ZM17.5 26.679C16.5646 26.679 15.6292 26.3907 14.8306 25.8137L2.91675 17.2073V29.349C2.91675 30.8591 4.14094 32.0833 5.65111 32.0833H29.3489C30.859 32.0833 32.0832 30.8591 32.0832 29.349V17.2073L20.1694 25.8137C19.3707 26.3902 18.4354 26.679 17.5 26.679ZM31.0356 12.1994C30.5315 11.8041 30.0535 11.4321 29.3489 10.9V8.38556C29.3489 6.8754 28.1247 5.65121 26.6145 5.65121H22.1968C22.0236 5.52588 21.8624 5.40853 21.6819 5.27751C20.7243 4.57854 18.8216 2.89691 17.5 2.91685C16.1784 2.89691 14.2763 4.57854 13.3181 5.27751C13.1376 5.40853 12.9763 5.52588 12.8032 5.65121H8.38546C6.8753 5.65121 5.65111 6.8754 5.65111 8.38556V10.9C4.94644 11.4315 4.4685 11.8041 3.96435 12.1994C3.63803 12.4552 3.37413 12.7818 3.19264 13.1545C3.01115 13.5273 2.9168 13.9364 2.91675 14.351L2.91675 14.9577L8.38546 18.9083V8.38556H26.6145V18.9083L32.0832 14.9577V14.351C32.0832 13.5113 31.697 12.7178 31.0356 12.1994Z" fill="#372A28"/>
</svg>
