<svg width="25" height="25" viewBox="0 0 35 35" fill="none" xmlns="http://www.w3.org/2000/svg">
<path d="M28.9584 2.91667H6.04175C4.31584 2.91667 2.91675 4.31576 2.91675 6.04167V28.9583C2.91675 30.6843 4.31584 32.0833 6.04175 32.0833H28.9584C30.6843 32.0833 32.0834 30.6843 32.0834 28.9583V6.04167C32.0834 4.31576 30.6843 2.91667 28.9584 2.91667ZM9.03654 27.9167C8.57866 27.9167 8.18648 27.5994 8.08498 27.1597L7.10855 22.9279C7.05705 22.7048 7.08561 22.4707 7.18923 22.2665C7.29285 22.0623 7.46493 21.901 7.67541 21.8107L12.2326 19.8577C12.4272 19.7743 12.6438 19.7564 12.8495 19.8068C13.0552 19.8571 13.239 19.973 13.3731 20.1369L15.3911 22.6034C18.5776 21.1084 21.1396 18.5111 22.6034 15.3912L20.1369 13.3731C19.973 13.239 19.8571 13.0552 19.8067 12.8495C19.7564 12.6438 19.7742 12.4273 19.8576 12.2326L21.8108 7.67546C21.901 7.46498 22.0623 7.2929 22.2665 7.18928C22.4707 7.08567 22.7048 7.05711 22.9279 7.1086L27.1597 8.08503C27.3749 8.13464 27.5669 8.25573 27.7044 8.42853C27.8419 8.60133 27.9168 8.81564 27.9167 9.03646C27.9167 19.4721 19.4568 27.9167 9.03654 27.9167Z" fill="#372A28"/>
</svg>
