<svg width="24" height="24" viewBox="0 0 24 24" fill="" xmlns="http://www.w3.org/2000/svg">
<path d="M18.25 19.3429H14.9688C14.7109 19.3429 14.5 19.132 14.5 18.8742V17.3117C14.5 17.0539 14.7109 16.8429 14.9688 16.8429H18.25C18.9414 16.8429 19.5 16.2843 19.5 15.5929V8.09293C19.5 7.40152 18.9414 6.84293 18.25 6.84293H14.9688C14.7109 6.84293 14.5 6.63199 14.5 6.37418V4.81168C14.5 4.55386 14.7109 4.34293 14.9688 4.34293H18.25C20.3203 4.34293 22 6.02261 22 8.09293V15.5929C22 17.6632 20.3203 19.3429 18.25 19.3429ZM16.4141 11.4914L9.85156 4.92886C9.26562 4.34293 8.25 4.75308 8.25 5.59293V9.34293H2.9375C2.41797 9.34293 2 9.76089 2 10.2804V14.0304C2 14.55 2.41797 14.9679 2.9375 14.9679H8.25V18.7179C8.25 19.5578 9.26562 19.9679 9.85156 19.382L16.4141 12.8195C16.7773 12.4523 16.7773 11.8586 16.4141 11.4914Z" fill="#fec327"/>
</svg>
